<mxfile host="app.diagrams.net" modified="2024-03-20T02:21:32.262Z" agent="Mozilla/5.0 (Macintosh; Intel Mac OS X 10_15_7) AppleWebKit/537.36 (KHTML, like Gecko) Chrome/122.0.0.0 Safari/537.36" etag="B7_RCcbpdsm7xDJsZtBL" version="24.0.7" type="github">
  <diagram name="第 1 页" id="TM3BHkgRBoJ-iDT3YmMG">
    <mxGraphModel dx="794" dy="496" grid="1" gridSize="10" guides="1" tooltips="1" connect="1" arrows="1" fold="1" page="1" pageScale="1" pageWidth="827" pageHeight="1169" math="0" shadow="0">
      <root>
        <mxCell id="0" />
        <mxCell id="1" parent="0" />
        <mxCell id="Cki-BpM3vTTuld4spmQQ-5" style="edgeStyle=orthogonalEdgeStyle;rounded=0;orthogonalLoop=1;jettySize=auto;html=1;exitX=1;exitY=0.5;exitDx=0;exitDy=0;entryX=0;entryY=0.5;entryDx=0;entryDy=0;fontSize=14;" parent="1" source="Cki-BpM3vTTuld4spmQQ-1" target="Cki-BpM3vTTuld4spmQQ-2" edge="1">
          <mxGeometry relative="1" as="geometry" />
        </mxCell>
        <mxCell id="Cki-BpM3vTTuld4spmQQ-1" value="基础组件库" style="rounded=0;whiteSpace=wrap;html=1;fontSize=14;" parent="1" vertex="1">
          <mxGeometry x="170" y="210" width="110" height="40" as="geometry" />
        </mxCell>
        <mxCell id="Cki-BpM3vTTuld4spmQQ-6" style="edgeStyle=orthogonalEdgeStyle;rounded=0;orthogonalLoop=1;jettySize=auto;html=1;exitX=1;exitY=0.5;exitDx=0;exitDy=0;fontSize=14;" parent="1" source="Cki-BpM3vTTuld4spmQQ-2" target="Cki-BpM3vTTuld4spmQQ-3" edge="1">
          <mxGeometry relative="1" as="geometry" />
        </mxCell>
        <mxCell id="Cki-BpM3vTTuld4spmQQ-2" value="拖拽基础组件到可视化区域" style="rounded=0;whiteSpace=wrap;html=1;fontSize=14;" parent="1" vertex="1">
          <mxGeometry x="350" y="210" width="100" height="40" as="geometry" />
        </mxCell>
        <mxCell id="Cki-BpM3vTTuld4spmQQ-7" style="edgeStyle=orthogonalEdgeStyle;rounded=0;orthogonalLoop=1;jettySize=auto;html=1;exitX=1;exitY=0.5;exitDx=0;exitDy=0;entryX=0;entryY=0.5;entryDx=0;entryDy=0;fontSize=14;" parent="1" source="Cki-BpM3vTTuld4spmQQ-3" target="Cki-BpM3vTTuld4spmQQ-4" edge="1">
          <mxGeometry relative="1" as="geometry" />
        </mxCell>
        <mxCell id="Cki-BpM3vTTuld4spmQQ-3" value="填写基础组件信息" style="rounded=0;whiteSpace=wrap;html=1;fontSize=14;" parent="1" vertex="1">
          <mxGeometry x="510" y="210" width="110" height="40" as="geometry" />
        </mxCell>
        <mxCell id="Cki-BpM3vTTuld4spmQQ-4" value="导出JSON文件" style="rounded=0;whiteSpace=wrap;html=1;fontSize=14;" parent="1" vertex="1">
          <mxGeometry x="680" y="210" width="110" height="40" as="geometry" />
        </mxCell>
      </root>
    </mxGraphModel>
  </diagram>
</mxfile>
